<svg class="icon" style="width: 1em;height: 1em;vertical-align: middle;fill: currentColor;overflow: hidden;" viewBox="0 0 1024 1024" version="1.1" xmlns="http://www.w3.org/2000/svg" p-id="4587"><path d="M541.0304 928.9216H482.9696a28.9792 28.9792 0 0 1-29.0304-28.9792V195.8912h116.1216v704.0512a28.9792 28.9792 0 0 1-29.0304 28.9792z" fill="#2C2C2C" p-id="4588"></path><path d="M724.48 499.1488L512 286.72 299.52 499.1488a29.0816 29.0816 0 0 1-40.96 0l-40.96-40.96a29.0816 29.0816 0 0 1 0-40.96L512 122.4192l294.6048 294.6048a29.0816 29.0816 0 0 1 0 40.96l-40.96 40.96a29.0816 29.0816 0 0 1-41.1648 0.2048z" fill="#2C2C2C" p-id="4589"></path></svg>