<svg class="icon" style="width: 1em;height: 1em;vertical-align: middle;fill: currentColor;overflow: hidden;"
  viewBox="0 0 1024 1024" version="1.1" xmlns="http://www.w3.org/2000/svg" p-id="23543">
  <path
    d="M653.2 129.439c14.112-10.629 34.166-7.81 44.802 6.296l274.55 364.136c10.643 14.117 7.822 34.19-6.3 44.826L669.027 768.545c-0.322 0.242-0.647 0.478-0.977 0.707l-70.763 49.226-9.813 7.856H942.38c17.673 0 32 14.327 32 32 0 17.497-14.041 31.714-31.47 31.996l-0.53 0.005H498.225c-0.487 0.031-0.976 0.05-1.466 0.06h-0.531l-225.455-0.018a32 32 0 0 1-25.248-12.343l-0.3-0.392-192.776-255.68c-10.538-13.976-7.878-33.79 5.88-44.505l0.42-0.321 222.698-167.72h0.001zM287.49 484.984L122.825 608.997l163.866 217.337H485.07l47.957-38.393L287.49 484.984z"
    p-id="23544"></path>
</svg>