<svg class="icon" style="width: 1em;height: 1em;vertical-align: middle;fill: currentColor;overflow: hidden;"
  viewBox="0 0 1024 1024" version="1.1" xmlns="http://www.w3.org/2000/svg" p-id="9669">
  <path
    d="M792 232v672H232V232h560m56-56H176v728c0 30.9 25.1 56 56 56h560c30.9 0 56-25.1 56-56V176zM932 176H92c-15.5 0-28 12.5-28 28s12.5 28 28 28h840c15.5 0 28-12.5 28-28s-12.5-28-28-28zM680 120v56H347.5v-56H680m0-56H347.5c-30.9 0-56 25.1-56 56v112H736V120c0-30.9-25.1-56-56-56zM372 344c-15.5 0-28 12.5-28 28v392c0 15.5 12.5 28 28 28s28-12.5 28-28V372c0-15.5-12.5-28-28-28zM512 344c-15.5 0-28 12.5-28 28v392c0 15.5 12.5 28 28 28s28-12.5 28-28V372c0-15.5-12.5-28-28-28zM652 344c-15.5 0-28 12.5-28 28v392c0 15.5 12.5 28 28 28s28-12.5 28-28V372c0-15.5-12.5-28-28-28z"
    p-id="9670"></path>
</svg>