<svg class="icon" style="width: 1em;height: 1em;vertical-align: middle;fill: currentColor;overflow: hidden;"
  viewBox="0 0 1024 1024" version="1.1" xmlns="http://www.w3.org/2000/svg" p-id="12863">
  <path
    d="M512 384a42.666667 42.666667 0 0 1 42.666667 42.666667v341.333333h130.986666a21.333333 21.333333 0 0 1 14.250667 5.504l2.688 2.901333a21.333333 21.333333 0 0 1-4.010667 29.866667l-165.717333 126.464a32 32 0 0 1-38.912-0.042667l-164.48-126.464A21.333333 21.333333 0 0 1 342.442667 768H469.333333v-341.333333a42.666667 42.666667 0 0 1 42.666667-42.666667z m229.674667 298.368A42.666667 42.666667 0 0 1 746.666667 597.333333H853.333333V170.666667H170.666667v426.666666h106.666666a42.666667 42.666667 0 0 1 0 85.333334H170.666667a85.333333 85.333333 0 0 1-85.333334-85.333334V170.666667a85.333333 85.333333 0 0 1 85.333334-85.333334h682.666666a85.333333 85.333333 0 0 1 85.333334 85.333334v426.666666a85.333333 85.333333 0 0 1-85.333334 85.333334h-106.666666z"
    fill="#000000" p-id="12864"></path>
</svg>