<svg class="icon" style="width: 1em;height: 1em;vertical-align: middle;fill: currentColor;overflow: hidden;"
  viewBox="0 0 1024 1024" version="1.1" xmlns="http://www.w3.org/2000/svg" p-id="8652">
  <path
    d="M204.245333 162.453333a32 32 0 0 0-34.88 6.912l-42.666666 42.666667a32 32 0 0 0 0 45.269333 32 32 0 0 0 33.301333 0V373.333333H149.333333A32 32 0 0 0 117.333333 405.333333 32 32 0 0 0 149.333333 437.333333h85.333334a32 32 0 0 0 32-32 32 32 0 0 0-32-32h-10.666667V192a32 32 0 0 0-19.754667-29.546667zM128 586.666667A32 32 0 0 0 96 618.666667 32 32 0 0 0 128 650.666667h96v18.752l-118.613333 118.613333A32 32 0 0 0 96 810.666667v21.333333A32 32 0 0 0 128 864h128a32 32 0 0 0 32-32 32 32 0 0 0-32-32H183.914667l94.72-94.72A32 32 0 0 0 288 682.666667v-64a32 32 0 0 0-32-32z m298.666667 213.333333a32 32 0 0 0-32 32 32 32 0 0 0 32 32h469.333333a32 32 0 0 0 32-32 32 32 0 0 0-32-32z m0-213.333333a32 32 0 0 0-32 32 32 32 0 0 0 32 32h469.333333a32 32 0 0 0 32-32 32 32 0 0 0-32-32z m0-213.333334a32 32 0 0 0-32 32 32 32 0 0 0 32 32h469.333333a32 32 0 0 0 32-32 32 32 0 0 0-32-32z m0-213.333333A32 32 0 0 0 394.666667 192a32 32 0 0 0 32 32h469.333333A32 32 0 0 0 928 192 32 32 0 0 0 896 160z"
    p-id="8653"></path>
</svg>