<svg class="icon" style="width: 1em;height: 1em;vertical-align: middle;fill: currentColor;overflow: hidden;"
  viewBox="0 0 1024 1024" version="1.1" xmlns="http://www.w3.org/2000/svg" p-id="5610">
  <path
    d="M654.976 128a170.666667 170.666667 0 0 0 241.066667 238.464L895.978667 810.666667a85.333333 85.333333 0 0 1-85.333334 85.333333H213.333333a85.333333 85.333333 0 0 1-85.333333-85.333333V213.333333a85.333333 85.333333 0 0 1 85.333333-85.333333h441.642667z m-4.394667 542.528h-320a32 32 0 0 0 0 64h320a32 32 0 0 0 0-64z m-128-149.333333h-192a32 32 0 0 0 0 64h192a32 32 0 0 0 0-64z"
    fill="#323847" p-id="5611"></path>
  <path d="M800 224m-117.333333 0a117.333333 117.333333 0 1 0 234.666666 0 117.333333 117.333333 0 1 0-234.666666 0Z"
    fill="#323847" p-id="5612"></path>
</svg>