<svg class="icon" style="width: 1em;height: 1em;vertical-align: middle;fill: currentColor;overflow: hidden;"
  viewBox="0 0 1024 1024" version="1.1" xmlns="http://www.w3.org/2000/svg" p-id="8289">
  <path
    d="M576 85.333333c0 18.944-8.234667 35.968-21.333333 47.701334V213.333333h213.333333a128 128 0 0 1 128 128v426.666667a128 128 0 0 1-128 128H256a128 128 0 0 1-128-128V341.333333a128 128 0 0 1 128-128h213.333333V133.034667A64 64 0 1 1 576 85.333333zM0 426.666667h85.333333v256H0v-256z m1024 0h-85.333333v256h85.333333v-256zM384 618.666667a64 64 0 1 0 0-128 64 64 0 0 0 0 128z m320-64a64 64 0 1 0-128 0 64 64 0 0 0 128 0z"
    fill="#000000" p-id="8290"></path>
</svg>